<?xml version="1.0" encoding="utf-8"?>
<!-- Generator: Adobe Illustrator 28.1.0, SVG Export Plug-In . SVG Version: 6.00 Build 0)  -->
<svg version="1.1" id="Layer_1" xmlns="http://www.w3.org/2000/svg" xmlns:xlink="http://www.w3.org/1999/xlink" x="0px" y="0px"
	 viewBox="0 0 1366 768" style="enable-background:new 0 0 1366 768;" xml:space="preserve">
<path d="M697.16,44.6L697.16,44.6L697.16,44.6z M947.78,170.21L947.78,170.21L947.78,170.21L947.78,170.21L947.78,170.21z
	 M777.49,65.85c55.42,16.29,104.81,46.66,144.03,86.98h0c-19.09,11.51-39.47,21.74-60.94,30.52
	C839.26,138.66,811.04,98.83,777.49,65.85L777.49,65.85z M590.19,65.85c-35.43,34.83-64.92,77.29-86.6,125.06v0
	c-23.07-8.23-45-18.09-65.59-29.38h0C478.42,116.87,530.85,83.28,590.19,65.85L590.19,65.85z M697.16,52.7
	c7.51,0.3,14.95,0.84,22.32,1.63h0c47.19,34.54,86.59,82.34,114.1,139.09h0c-42.24,14.29-88.13,23.15-136.42,25.43L697.16,52.7
	L697.16,52.7z M670.52,52.7v166.74h0c-49.11-0.16-96-7.09-139.43-19.66c27.62-59.54,68.17-109.62,117.11-145.44
	C655.56,53.54,663.01,53,670.52,52.7L670.52,52.7z M519.89,226.29c47.18,14.03,97.94,21.73,150.63,21.89h0v122.45H491.46
	C492.95,319.23,502.97,270.54,519.89,226.29L519.89,226.29z M845.19,219.65c18.48,46.01,29.46,97,31.02,150.97H697.16V247.61h0
	C749.22,245.25,799.11,235.53,845.19,219.65L845.19,219.65z M419.42,183.93c22.96,12.92,47.45,24.13,73.18,33.39l0,0
	c-17.93,47.33-28.46,99.1-29.95,153.3H352.54C355.31,300.63,379.79,236.22,419.42,183.93L419.42,183.93z M940.88,174.55
	c43.95,53.88,71.31,121.84,74.25,196.07H905.03c-1.57-57.19-13.2-111.67-32.98-161.09h0C896.31,199.57,919.34,187.85,940.88,174.55
	L940.88,174.55z M491.47,397.38h179.05v114.06h-0.02c-53.73,0.16-105.45,8.16-153.42,22.73
	C501.87,491.94,492.87,445.86,491.47,397.38L491.47,397.38z M697.16,397.38h179.05l0,0c-1.48,51.1-11.39,99.53-28.13,143.58
	c-46.87-16.47-97.76-26.55-150.92-28.96h0V397.38z M462.65,397.38L462.65,397.38c1.41,51.39,10.95,100.59,27.22,145.9v0
	c-26.36,9.67-51.41,21.38-74.82,34.89c-37.05-51.2-59.84-113.41-62.51-180.79h0H462.65z M905.03,397.38L905.03,397.38h110.1h0.01
	c-2.85,71.69-28.45,137.52-69.78,190.47c-21.98-13.92-45.58-26.19-70.49-36.6h0C892.93,503.76,903.53,451.79,905.03,397.38
	L905.03,397.38z M952.17,592.26L952.17,592.26L952.17,592.26z M863.82,577.68L863.82,577.68c22.16,9.26,43.13,20.07,62.7,32.24h0
	c-39.99,42.93-91.23,75.24-149.03,92.23C812.78,667.46,842.17,625.21,863.82,577.68L863.82,577.68z M500.4,569.93
	c21.94,50.69,52.59,95.66,89.78,132.23C528.41,684,474.12,648.34,433.06,600.91h0C454.13,588.99,476.66,578.59,500.4,569.93
	L500.4,569.93z M697.16,540.83L697.16,540.83c49.59,2.34,96.64,11.62,139.81,26.6h0c-27.62,59.89-68.32,110.27-117.49,146.24h0
	c-7.37,0.79-14.81,1.33-22.32,1.63h0V540.83z M670.51,540.25L670.51,540.25l0.01,175.06c-7.51-0.3-14.95-0.84-22.32-1.63h0
	c-50.94-37.28-92.8-90.02-120.43-152.79C572.12,547.7,620.15,540.41,670.51,540.25L670.51,540.25z M683.84,23.74
	c-198.96,0-360.26,161.29-360.26,360.26s161.29,360.26,360.26,360.26c198.96,0,360.26-161.29,360.26-360.26
	S882.8,23.74,683.84,23.74L683.84,23.74z M683.84,23.74"/>
</svg>
